<?xml version="1.0" standalone="no"?><!DOCTYPE svg PUBLIC "-//W3C//DTD SVG 1.1//EN" "http://www.w3.org/Graphics/SVG/1.1/DTD/svg11.dtd"><svg t="1704278196053" class="icon" viewBox="0 0 1024 1024" version="1.1" xmlns="http://www.w3.org/2000/svg" p-id="8054" xmlns:xlink="http://www.w3.org/1999/xlink" width="16" height="16"><path d="M636.95 439.1c-12.1 16.7-54.35 31.25-70.45 42.45 2.3 2.4 4.2 5.25 5.45 8.55 1.15 3.05 1.75 6.25 1.75 9.5v146.15h62.45c20 0 56 3.4 74.7 10.05 1.4-17.6-2.5-320.7-6.55-327-1.2-0.05-2.3-0.95-3-0.65-10.7 5.15-42.05-4.85-47.55 3-21.85 31.25-1.3 82.55-16.8 107.95zM312.7 383c-5.35 50.9-6.45 232.9-2.9 288.35 14.7-5.25 30.05-8.45 45.6-9.6v-0.45h75.3l41.25-79.4-41.25-83.25c0-6.95-22.95-13.25-18.5-17.85-16.15-11.15-32.65-25.6-44.8-42.4-15.3-27.35 12.3-91.35-3.6-121.05-3.9-7.25-36.05 9.35-42.35 3.75-3.55 20.15-6.5 40.85-8.75 61.9z" fill="#6D4C41" p-id="8055"></path><path d="M704.05 340.3c-13.1-4.3-29.8 10.55-37.25 33.25-7.45 22.7-2.9 44.55 10.25 48.9 13.1 4.3 29.8-10.55 37.25-33.25 7.4-22.7 2.85-44.6-10.25-48.9zM320.65 340.3c13.1-4.3 29.8 10.55 37.25 33.25 7.45 22.7 2.9 44.55-10.2 48.9-13.1 4.3-29.8-10.55-37.25-33.25-7.5-22.7-2.95-44.6 10.2-48.9z" fill="#FFD7A3" p-id="8056"></path><path d="M581.35 581.15c153.35 67.2 199.35 103.05 217.55 119.15 28 24.8 43.5 117.2 60.05 195.7H165.05c16.55-78.45 32.05-170.9 60.05-195.7 18.2-16.1 62.5-51 215.85-118.25l140.4-0.9z" fill="#FFDDCC" p-id="8057"></path><path d="M581.35 581.15c153.35 67.2 199.35 103.05 217.5 119.15 28 24.8 43.5 117.2 60.05 195.7H165.1c16.5-78.45 32-170.9 60.05-195.7 18.2-16.1 62.5-51 215.85-118.25l140.35-0.9z" fill="#BA68C8" p-id="8058"></path><path d="M581.35 581.15c56.5 24.75 98.4 45.25 129.7 62.1l-6.2 4.65c-123.95 92.85-263.5 96.6-384.85-1.05l-5.55-4.45c30.75-16.4 71.6-36.3 126.4-60.3l140.5-0.95z" fill="#9D5BA8" p-id="8059"></path><path d="M581.35 581.15l2.2 0.95 0.4 0.2 1.8 0.8 0.85 0.35 1.35 0.6 2.15 0.95 1.65 0.75 0.5 0.2 2.05 0.9 0.1 0.05 2.15 0.95 0.3 0.15 1.8 0.8 0.7 0.3 2.5 1.1 0.95 0.45 1.5 0.65 0.55 0.25 1.9 0.85 0.15 0.1 2.05 0.9 0.2 0.1 1.8 0.8 1.85 0.85 0.15 0.1 1 0.45 1 0.45 1.35 0.6 0.65 0.3 1.7 0.8 0.25 0.1 1.95 0.9 0.1 0.05 1.8 0.85 1.75 0.8 0.2 0.1 0.85 0.4 1.05 0.5 1.2 0.55 0.7 0.3 1.55 0.7 0.3 0.15 1.85 0.85h0.05l1.8 0.85 0.4 0.2 1.45 0.7 0.75 0.35 1.1 0.5 0.3 0.15 1.5 0.7 1.4 0.65 0.4 0.2 1.75 0.85h0.05l1.8 0.85 0.3 0.15 1.45 0.7 0.05 0.05 1.4 0.65 0.3 0.15 0.95 0.45 0.8 0.35 0.45 0.2 1.3 0.6 1.6 0.75 0.1 0.05 1.7 0.8 0.2 0.1 1.45 0.7 0.55 0.25 1.15 0.55 0.85 0.4 0.8 0.4 1.15 0.55 0.5 0.25 1.45 0.7 0.2 0.1 1.6 0.8 0.15 0.05 1.45 0.7 1.6 0.75h0.05l3.15 1.55 1.3 0.65 0.25 0.1 1.55 0.75 1.55 0.75 0.35 0.2 1.15 0.6 0.65 0.3 0.85 0.45 0.9 0.45 0.6 0.3 1.2 0.6 0.3 0.15 1.45 0.75 1.45 0.75 0.25 0.15 1.15 0.6 0.55 0.3 0.9 0.45 0.8 0.4 0.6 0.3 1.1 0.55 0.35 0.15 1.35 0.7 0.05 0.05 1.4 0.7 0.2 0.1 1.2 0.6c-126.75 94.95-257.65 85.6-364.9-0.7l1.35-0.7 1.3-0.65h0.05l1.35-0.7c1.35-0.7 2.75-1.4 4.15-2.1l1.05-0.5 0.4-0.2c4.25-2.15 8.65-4.35 13.25-6.6l0.45-0.2 1.1-0.55c2.55-1.25 5.15-2.55 7.85-3.8l0.4-0.2 1.2-0.6 3.25-1.55 1.35-0.65 0.3-0.15 1.65-0.8h0.05l1.65-0.8 0.35-0.15 1.35-0.65 0.7-0.3 1-0.5 0.15-0.05 1.55-0.75 1.35-0.65 0.35-0.15 1.7-0.8h0.05l1.75-0.8c1.75-0.8 3.5-1.65 5.3-2.5l1.35-0.65 0.45-0.2 1.7-0.8 0.1-0.05 1.8-0.85 0.25-0.1 1.6-0.75 0.6-0.3 1.25-0.55 1-0.45 0.9-0.4 1.35-0.6 0.55-0.25 1.7-0.8 0.15-0.1 1.9-0.85 0.2-0.1 1.7-0.8 0.55-0.25 1.35-0.6 0.95-0.45 1-0.45 1.35-0.6 0.6-0.3 1.7-0.8 0.25-0.1 2-0.9 0.15-0.05 1.85-0.85 0.55-0.25 1.5-0.65 0.9-0.4 1.1-0.5 1.3-0.6 0.7-0.3 1.7-0.75 0.3-0.15 2.05-0.9 0.05-0.05 2-0.9 0.45-0.2 1.6-0.7 0.9-0.4 0.25-0.1 2.1-0.9 0.15-0.05 0.8-0.35 1.7-0.75 0.4-0.2 2.15-0.95 140.45-0.8z" fill="#BA68C8" p-id="8060"></path><path d="M581.35 581.15c47.4 20.8 84.55 38.55 113.8 53.7-126.75 94.95-257.65 85.6-364.9-0.7 28.6-14.7 64.75-31.95 110.7-52.1l140.4-0.9z" fill="#FFD7A3" p-id="8061"></path><path d="M437.55 447.15v169.95c40.95 50.15 107.95 48.4 148.9 0V447.15c0-91.8-148.9-91.8-148.9 0z" fill="#FFD7A3" p-id="8062"></path><path d="M437.55 447.15v113.8c28.2 20.55 55.35 32.05 74.45 32.05s46.3-11.5 74.45-32.05V447.15c0-91.8-148.9-91.8-148.9 0z" fill="#E9C596" p-id="8063"></path><path d="M512 142c249.9 0 160.05 301.95 143.7 326-18 26.5-103.35 96.75-143.7 96.75-40.35 0-125.7-70.25-143.7-96.75-16.35-24.05-106.2-326 143.7-326z" fill="#FFD7A3" p-id="8064"></path><path d="M717.55 896h-11.9c0.55-52.85 0.55-90.9 0.55-90.9s5.25 39.55 11.35 90.9zM306.45 896h11.9c-0.55-52.85-0.55-90.9-0.55-90.9s-5.25 39.55-11.35 90.9z" fill="#91559B" p-id="8065"></path><path d="M556.9 468c-29.8 10.65-64.45 8.95-89.8 0 8.3 38.15 73.95 39.05 89.8 0z" fill="#E9C596" p-id="8066"></path><path d="M512.1 128c53.75 0 102.45 26.8 137.7 70.2 28.2 34.7 47.8 80 54.5 130.65-6.2 3.5-12.75 15.55-20.35 17.4-46.3 11.25-113.65-18.05-132.7-70.1C491 311 409.1 367.8 340.05 345.65c-6.2-2-14.4-12-20.35-15.2 6.5-51.3 26.2-97.2 54.7-132.25C409.65 154.8 458.35 128 512.1 128z" fill="#6D4C41" p-id="8067"></path></svg>